<svg width="60" height="60" viewBox="0 0 60 60" fill="none" xmlns="http://www.w3.org/2000/svg">
<rect width="60" height="60" rx="8" fill="#006469"/>
<path d="M23.333 16.6666H36.6663V19.3333H35.333V38C35.333 39.4144 34.7711 40.771 33.7709 41.7712C32.7707 42.7714 31.4142 43.3333 29.9997 43.3333C28.5852 43.3333 27.2286 42.7714 26.2284 41.7712C25.2282 40.771 24.6663 39.4144 24.6663 38V19.3333H23.333V16.6666ZM32.6663 19.3333H27.333V38C27.333 38.7072 27.614 39.3855 28.1141 39.8856C28.6142 40.3857 29.2924 40.6666 29.9997 40.6666C30.7069 40.6666 31.3852 40.3857 31.8853 39.8856C32.3854 39.3855 32.6663 38.7072 32.6663 38V19.3333Z" fill="white"/>
</svg>
