<svg width="52" height="52" viewBox="0 0 52 52" fill="none" xmlns="http://www.w3.org/2000/svg">
<rect width="52" height="52" rx="8" fill="#006469"/>
<path d="M25.9874 26.341C23.1624 26.341 20.8144 23.995 20.8144 21.219C20.8144 18.347 23.1624 16 25.9884 16C28.9104 16 31.1614 18.346 31.1614 21.219C31.1563 22.5821 30.6103 23.8873 29.6433 24.848C28.6763 25.8086 27.3674 26.346 26.0044 26.342L25.9874 26.341V26.341ZM25.9874 19.017C24.7914 19.017 23.8814 20.022 23.8814 21.22C23.8814 22.416 24.7914 23.326 25.9884 23.326C27.2334 23.326 28.0954 22.416 28.0954 21.22C28.0964 20.021 27.2334 19.017 25.9874 19.017ZM28.0474 30.603L30.9704 33.428C31.5454 34.049 31.5454 34.959 30.9704 35.534C30.3484 36.155 29.3894 36.155 28.9104 35.534L25.9884 32.661L23.1624 35.534C22.8754 35.821 22.4914 35.964 22.0594 35.964C21.7244 35.964 21.3414 35.82 21.0054 35.534C20.4304 34.959 20.4304 34.049 21.0054 33.427L23.9754 30.602C22.9028 30.2844 21.8739 29.8346 20.9124 29.263C20.1934 28.88 20.0504 27.923 20.4334 27.204C20.9124 26.486 21.7744 26.295 22.5414 26.774C23.58 27.4078 24.7731 27.7431 25.9899 27.7431C27.2066 27.7431 28.3998 27.4078 29.4384 26.774C30.2054 26.295 31.1144 26.486 31.5454 27.204C31.9774 27.923 31.7844 28.879 31.1134 29.263C30.2044 29.838 29.1504 30.269 28.0484 30.604L28.0474 30.603V30.603Z" fill="white"/>
</svg>
