<svg width="60" height="60" viewBox="0 0 60 60" fill="none" xmlns="http://www.w3.org/2000/svg">
<rect width="60" height="60" rx="8" fill="#006469"/>
<path fill-rule="evenodd" clip-rule="evenodd" d="M26 36.6667L30 32.7467C29.5573 32.6962 29.1122 32.6695 28.6667 32.6667C25.1067 32.6667 18 34.4534 18 38V39.6667C18 40.219 18.4477 40.6667 19 40.6667H30L26 36.6667ZM28.6667 30C31.6133 30 34 27.6134 34 24.6667C34 21.72 31.6133 19.3334 28.6667 19.3334C25.72 19.3334 23.3333 21.72 23.3333 24.6667C23.3333 27.6134 25.72 30 28.6667 30ZM35.3368 40.6167C34.9456 41.0115 34.3076 41.0116 33.9163 40.6169L30.6985 37.3713C30.3119 36.9813 30.3121 36.3524 30.6991 35.9626L31.1579 35.5006C31.5486 35.107 32.1851 35.1066 32.5763 35.4998L34.6267 37.56L40.757 31.3819C41.1481 30.9878 41.7853 30.9877 42.1765 31.3816L42.6345 31.8428C43.0214 32.2325 43.0217 32.8612 42.6352 33.2513L35.3368 40.6167Z" fill="white"/>
</svg>
