<svg width="60" height="60" viewBox="0 0 60 60" fill="none" xmlns="http://www.w3.org/2000/svg">
<rect width="60" height="60" rx="8" fill="#006469"/>
<path d="M37.9997 22H35.333C35.333 19.0533 32.9463 16.6666 29.9997 16.6666C27.053 16.6666 24.6663 19.0533 24.6663 22H21.9997C20.533 22 19.333 23.2 19.333 24.6666V40.6666C19.333 42.1333 20.533 43.3333 21.9997 43.3333H37.9997C39.4663 43.3333 40.6663 42.1333 40.6663 40.6666V24.6666C40.6663 23.2 39.4663 22 37.9997 22ZM29.9997 19.3333C31.4663 19.3333 32.6663 20.5333 32.6663 22H27.333C27.333 20.5333 28.533 19.3333 29.9997 19.3333ZM37.9997 40.6666H21.9997V24.6666H24.6663V27.3333C24.6663 28.0666 25.2663 28.6666 25.9997 28.6666C26.733 28.6666 27.333 28.0666 27.333 27.3333V24.6666H32.6663V27.3333C32.6663 28.0666 33.2663 28.6666 33.9997 28.6666C34.733 28.6666 35.333 28.0666 35.333 27.3333V24.6666H37.9997V40.6666Z" fill="white"/>
</svg>
