<svg width="60" height="60" viewBox="0 0 60 60" fill="none" xmlns="http://www.w3.org/2000/svg">
<rect width="60" height="60" rx="8" fill="#006469"/>
<path d="M40.2001 26.0533L33.7468 25.4933L31.2268 19.56C30.7734 18.48 29.2268 18.48 28.7734 19.56L26.2534 25.5067L19.8134 26.0533C18.6401 26.1467 18.1601 27.6133 19.0534 28.3867L23.9468 32.6267L22.4801 38.92C22.2134 40.0667 23.4534 40.9733 24.4668 40.36L30.0001 37.0267L35.5334 40.3733C36.5468 40.9867 37.7868 40.08 37.5201 38.9333L36.0534 32.6267L40.9468 28.3867C41.8401 27.6133 41.3734 26.1467 40.2001 26.0533ZM30.0001 34.5333L24.9868 37.56L26.3201 31.8533L21.8934 28.0133L27.7334 27.5067L30.0001 22.1333L32.2801 27.52L38.1201 28.0267L33.6934 31.8667L35.0268 37.5733L30.0001 34.5333Z" fill="white"/>
</svg>
