<svg width="52" height="52" viewBox="0 0 52 52" fill="none" xmlns="http://www.w3.org/2000/svg">
<rect width="52" height="52" rx="8" fill="#006469"/>
<path fill-rule="evenodd" clip-rule="evenodd" d="M38 26C38 32.627 32.627 38 26 38C19.373 38 14 32.627 14 26C14 19.373 19.373 14 26 14C32.627 14 38 19.373 38 26ZM26.43 22.859C25.263 23.344 22.93 24.349 19.432 25.873C18.864 26.099 18.566 26.32 18.539 26.536C18.493 26.902 18.951 27.046 19.573 27.241C19.658 27.268 19.746 27.295 19.836 27.325C20.449 27.524 21.273 27.757 21.701 27.766C22.09 27.774 22.524 27.614 23.003 27.286C26.271 25.079 27.958 23.964 28.064 23.94C28.139 23.923 28.243 23.901 28.313 23.964C28.383 24.026 28.376 24.144 28.369 24.176C28.323 24.369 26.529 26.038 25.599 26.902C25.309 27.171 25.104 27.362 25.062 27.406C24.968 27.503 24.872 27.596 24.78 27.685C24.21 28.233 23.784 28.645 24.804 29.317C25.294 29.64 25.686 29.907 26.077 30.173C26.504 30.464 26.93 30.754 27.482 31.116C27.622 31.208 27.756 31.303 27.887 31.396C28.384 31.751 28.831 32.069 29.383 32.019C29.703 31.989 30.035 31.688 30.203 30.789C30.6 28.663 31.382 24.059 31.563 22.161C31.574 22.0034 31.5673 21.8451 31.543 21.689C31.5284 21.5629 31.4671 21.4469 31.371 21.364C31.228 21.247 31.006 21.222 30.906 21.224C30.455 21.232 29.763 21.473 26.43 22.859V22.859Z" fill="white"/>
</svg>
