<svg width="52" height="52" viewBox="0 0 52 52" fill="none" xmlns="http://www.w3.org/2000/svg">
<rect width="52" height="52" rx="8" fill="#006469"/>
<g clip-path="url(#clip0_195_18)">
<path fill-rule="evenodd" clip-rule="evenodd" d="M37.45 19.948C37.616 19.402 37.45 19 36.655 19H34.03C33.362 19 33.054 19.347 32.887 19.73C32.887 19.73 31.552 22.926 29.661 25.002C29.049 25.604 28.771 25.795 28.437 25.795C28.27 25.795 28.019 25.604 28.019 25.057V19.948C28.019 19.292 27.835 19 27.279 19H23.151C22.734 19 22.483 19.304 22.483 19.593C22.483 20.214 23.429 20.358 23.526 22.106V25.904C23.526 26.737 23.373 26.888 23.039 26.888C22.149 26.888 19.984 23.677 18.699 20.003C18.45 19.288 18.198 19 17.527 19H14.9C14.15 19 14 19.347 14 19.73C14 20.412 14.89 23.8 18.145 28.281C20.315 31.341 23.37 33 26.153 33C27.822 33 28.028 32.632 28.028 31.997V29.684C28.028 28.947 28.186 28.8 28.715 28.8C29.105 28.8 29.772 28.992 31.33 30.467C33.11 32.216 33.403 33 34.405 33H37.03C37.78 33 38.156 32.632 37.94 31.904C37.702 31.18 36.852 30.129 35.725 28.882C35.113 28.172 34.195 27.407 33.916 27.024C33.527 26.533 33.638 26.314 33.916 25.877C33.916 25.877 37.116 21.451 37.449 19.948H37.45Z" fill="white"/>
</g>
<defs>
<clipPath id="clip0_195_18">
<rect width="24" height="24" fill="white" transform="translate(14 14)"/>
</clipPath>
</defs>
</svg>
