<svg width="52" height="52" viewBox="0 0 52 52" fill="none" xmlns="http://www.w3.org/2000/svg">
<rect width="52" height="52" rx="8" fill="#006469"/>
<g clip-path="url(#clip0_196_20)">
<path d="M37.5006 20.5071C37.3647 20.0223 37.1 19.5834 36.7346 19.2371C36.3589 18.8801 35.8984 18.6247 35.3966 18.4951C33.5186 18.0001 25.9946 18.0001 25.9946 18.0001C22.8579 17.9644 19.722 18.1214 16.6046 18.4701C16.1028 18.6093 15.6432 18.8704 15.2666 19.2301C14.8966 19.5861 14.6286 20.0251 14.4886 20.5061C14.1523 22.3178 13.9889 24.1574 14.0006 26.0001C13.9886 27.8411 14.1516 29.6801 14.4886 31.4941C14.6256 31.9731 14.8926 32.4101 15.2636 32.7631C15.6346 33.1161 16.0966 33.3711 16.6046 33.5061C18.5076 34.0001 25.9946 34.0001 25.9946 34.0001C29.1353 34.0358 32.2752 33.8789 35.3966 33.5301C35.8984 33.4004 36.3589 33.1451 36.7346 32.7881C37.0999 32.4418 37.3643 32.0029 37.4996 31.5181C37.8447 29.707 38.0125 27.8667 38.0006 26.0231C38.0266 24.1717 37.859 22.3226 37.5006 20.5061V20.5071ZM23.6026 29.4241V22.5771L29.8626 26.0011L23.6026 29.4241Z" fill="white"/>
</g>
<defs>
<clipPath id="clip0_196_20">
<rect width="24" height="24" fill="white" transform="translate(14 14)"/>
</clipPath>
</defs>
</svg>
